# xmcd
#
# Track frame offsets:
#	150
#	16622
#	33890
#	53015
#	83740
#	111301
#	130709
#	149453
#	176529
#	190423
#	208485
#	230926
#	251166
#	275830
#	294368
#
# Disc length: 4204 seconds
#
# Revision: 1
# Processed by: cddbd v1.5.2PL0 Copyright (c) Steve Scherf et al.
# Submitted via: audiograbber 1.83.01
#
DISCID=e1106a0f
DTITLE=Nujeen mustafa - Flucht in die freiheit - CD 4
DYEAR=2016
DGENRE=Hörbuch
TTITLE0=4 - 46 - Flucht in die Freihei
TTITLE1=4 - 47 - Flucht in die Freihei
TTITLE2=4 - 48 - Flucht in die Freihei
TTITLE3=4 - 49 - Flucht in die Freihei
TTITLE4=4 - 50 - Flucht in die Freihei
TTITLE5=4 - 51 - Flucht in die Freihei
TTITLE6=4 - 52 - Flucht in die Freihei
TTITLE7=4 - 53 - Flucht in die Freihei8
TTITLE8=4 - 54 - Flucht in die Freihei
TTITLE9=4 - 55 - Flucht in die Freihei
TTITLE10=4 - 56 - Flucht in die Freihei
TTITLE11=4 - 57 - Flucht in die Freihei
TTITLE12=4 - 58 - Flucht in die Freihei
TTITLE13=4 - 59 - Flucht in die Freihei
TTITLE14=4 - 60 - Flucht in die Freihei
EXTD=
EXTT0=
EXTT1=
EXTT2=
EXTT3=
EXTT4=
EXTT5=
EXTT6=
EXTT7=
EXTT8=
EXTT9=
EXTT10=
EXTT11=
EXTT12=
EXTT13=
EXTT14=
PLAYORDER=
